<svg width="12" height="11" viewBox="0 0 12 11" fill="none" xmlns="http://www.w3.org/2000/svg">
<g clip-path="url(#clip0)">
<path d="M11.0021 3.5729L7.95835 3.12915L6.59793 0.370822C6.35418 -0.120844 5.64793 -0.127094 5.4021 0.370822L4.04168 3.12915L0.997929 3.5729C0.452096 3.65207 0.233346 4.32498 0.629179 4.7104L2.83126 6.85623L2.31043 9.88747C2.21668 10.4354 2.79376 10.8458 3.2771 10.5896L6.00001 9.15831L8.72293 10.5896C9.20626 10.8437 9.78335 10.4354 9.6896 9.88747L9.16876 6.85623L11.3708 4.7104C11.7667 4.32498 11.5479 3.65207 11.0021 3.5729ZM8.09585 6.50623L8.58959 9.38956L6.00001 8.02914L3.41043 9.38956L3.90418 6.50623L1.80835 4.46457L4.70418 4.04373L6.00001 1.41874L7.29585 4.04373L10.1917 4.46457L8.09585 6.50623Z" fill="white"/>
</g>
<defs>
<clipPath id="clip0">
<rect width="12" height="10.6667" fill="white"/>
</clipPath>
</defs>
</svg>
